HIERARCHY
ROOT Hips
{
  OFFSET 377.763 88.2609 174.383
  CHANNELS 6 Xposition Yposition Zposition Zrotation Xrotation Yrotation
  JOINT RightUpLeg
  {
    OFFSET -9.30536 -1.56319 -0.0308412
    CHANNELS 3 Zrotation Xrotation Yrotation
    JOINT RightLeg
    {
      OFFSET -0.0509473 -41.8867 0.0408735
      CHANNELS 3 Zrotation Xrotation Yrotation
      JOINT RightFoot
      {
        OFFSET -0.135761 -42.7852 -0.897951
        CHANNELS 3 Zrotation Xrotation Yrotation
        End Site
        {
          OFFSET 0 -7.69 17.5
        }
      }
    }
  }
  JOINT LeftUpLeg
  {
    OFFSET 9.25165 -1.62789 -0.00729124
    CHANNELS 3 Zrotation Xrotation Yrotation
    JOINT LeftLeg
    {
      OFFSET 0.024936 -41.8804 0.00207043
      CHANNELS 3 Zrotation Xrotation Yrotation
      JOINT LeftFoot
      {
        OFFSET 0.245063 -40.7505 0.529473
        CHANNELS 3 Zrotation Xrotation Yrotation
        End Site
        {
          OFFSET 0 -7.69 17.5
        }
      }
    }
  }
  JOINT Spine
  {
    OFFSET 0.0381636 14.2969 0.0214663
    CHANNELS 3 Zrotation Xrotation Yrotation
    JOINT Spine1
    {
      OFFSET 0.0273681 9.71499 0.0100001
      CHANNELS 3 Zrotation Xrotation Yrotation
      JOINT Spine2
      {
        OFFSET 0.029022 10.1215 -0.000399631
        CHANNELS 3 Zrotation Xrotation Yrotation
        JOINT Spine3
        {
          OFFSET 0.0290531 9.71322 0.0107928
          CHANNELS 3 Zrotation Xrotation Yrotation
          JOINT Neck
          {
            OFFSET 0.0830829 10.3832 0.0498053
            CHANNELS 3 Zrotation Xrotation Yrotation
            JOINT Head
            {
              OFFSET 0.0700972 9.47827 0.0499309
              CHANNELS 3 Zrotation Xrotation Yrotation
              End Site
              {
                OFFSET 0 15.95 0
              }
            }
          }
          JOINT RightShoulder
          {
            OFFSET -3.16088 6.93633 0.0290789
            CHANNELS 3 Zrotation Xrotation Yrotation
            JOINT RightArm
            {
              OFFSET -12.7509 0.028765 0.0682708
              CHANNELS 3 Zrotation Xrotation Yrotation
              JOINT RightForeArm
              {
                OFFSET -26.5067 -0.0728143 0.13822
                CHANNELS 3 Zrotation Xrotation Yrotation
                JOINT RightHand
                {
                  OFFSET -25.9897 -0.0664148 0.00141744
                  CHANNELS 3 Zrotation Xrotation Yrotation
                  JOINT RightHandThumb1
                  {
                    OFFSET -2.48905 0.190105 3.12053
                    CHANNELS 3 Zrotation Xrotation Yrotation
                    JOINT RightHandThumb2
                    {
                      OFFSET -3.68274 0 0
                      CHANNELS 3 Zrotation Xrotation Yrotation
                      JOINT RightHandThumb3
                      {
                        OFFSET -2.55832 0 0
                        CHANNELS 3 Zrotation Xrotation Yrotation
                        End Site
                        {
                          OFFSET -2.194 0 0
                        }
                      }
                    }
                  }
                  JOINT RightInHandIndex
                  {
                    OFFSET -3.22368 0.508421 1.97842
                    CHANNELS 3 Zrotation Xrotation Yrotation
                    JOINT RightHandIndex1
                    {
                      OFFSET -5.21684 -0.091368 0.999158
                      CHANNELS 3 Zrotation Xrotation Yrotation
                      JOINT RightHandIndex2
                      {
                        OFFSET -3.61937 0 0
                        CHANNELS 3 Zrotation Xrotation Yrotation
                        JOINT RightHandIndex3
                        {
                          OFFSET -2.0521 0 0
                          CHANNELS 3 Zrotation Xrotation Yrotation
                          End Site
                          {
                            OFFSET -1.805 0 0
                          }
                        }
                      }
                    }
                  }
                  JOINT RightInHandMiddle
                  {
                    OFFSET -3.38211 0.517263 0.756737
                    CHANNELS 3 Zrotation Xrotation Yrotation
                    JOINT RightHandMiddle1
                    {
                      OFFSET -5.17411 -0.084 0.313895
                      CHANNELS 3 Zrotation Xrotation Yrotation
                      JOINT RightHandMiddle2
                      {
                        OFFSET -3.94947 0 0
                        CHANNELS 3 Zrotation Xrotation Yrotation
                        JOINT RightHandMiddle3
                        {
                          OFFSET -2.47579 0 0
                          CHANNELS 3 Zrotation Xrotation Yrotation
                          End Site
                          {
                            OFFSET -1.975 0 0
                          }
                        }
                      }
                    }
                  }
                  JOINT RightInHandRing
                  {
                    OFFSET -3.36516 0.537895 -0.128947
                    CHANNELS 3 Zrotation Xrotation Yrotation
                    JOINT RightHandRing1
                    {
                      OFFSET -4.63474 -0.022105 -0.478947
                      CHANNELS 3 Zrotation Xrotation Yrotation
                      JOINT RightHandRing2
                      {
                        OFFSET -3.44238 0 0
                        CHANNELS 3 Zrotation Xrotation Yrotation
                        JOINT RightHandRing3
                        {
                          OFFSET -2.3881 0 0
                          CHANNELS 3 Zrotation Xrotation Yrotation
                          End Site
                          {
                            OFFSET -1.857 0 0
                          }
                        }
                      }
                    }
                  }
                  JOINT RightInHandPinky
                  {
                    OFFSET -3.16105 0.469368 -1.20179
                    CHANNELS 3 Zrotation Xrotation Yrotation
                    JOINT RightHandPinky1
                    {
                      OFFSET -4.14105 -0.022105 -1.09053
                      CHANNELS 3 Zrotation Xrotation Yrotation
                      JOINT RightHandPinky2
                      {
                        OFFSET -2.75653 0 0
                        CHANNELS 3 Zrotation Xrotation Yrotation
                        JOINT RightHandPinky3
                        {
                          OFFSET -1.74189 0 0
                          CHANNELS 3 Zrotation Xrotation Yrotation
                          End Site
                          {
                            OFFSET -1.645 0 0
                          }
                        }
                      }
                    }
                  }
                }
              }
            }
          }
          JOINT LeftShoulder
          {
            OFFSET 3.23403 6.91572 -0.0126821
            CHANNELS 3 Zrotation Xrotation Yrotation
            JOINT LeftArm
            {
              OFFSET 12.8488 -0.0444641 -0.0528339
              CHANNELS 3 Zrotation Xrotation Yrotation
              JOINT LeftForeArm
              {
                OFFSET 26.4942 -0.0237746 -0.09002
                CHANNELS 3 Zrotation Xrotation Yrotation
                JOINT LeftHand
                {
                  OFFSET 25.9989 -0.00653758 -0.026747
                  CHANNELS 3 Zrotation Xrotation Yrotation
                  JOINT LeftHandThumb1
                  {
                    OFFSET 2.48905 0.190105 3.12053
                    CHANNELS 3 Zrotation Xrotation Yrotation
                    JOINT LeftHandThumb2
                    {
                      OFFSET 3.68274 0 0
                      CHANNELS 3 Zrotation Xrotation Yrotation
                      JOINT LeftHandThumb3
                      {
                        OFFSET 2.55832 0 0
                        CHANNELS 3 Zrotation Xrotation Yrotation
                        End Site
                        {
                          OFFSET 2.194 0 0
                        }
                      }
                    }
                  }
                  JOINT LeftInHandIndex
                  {
                    OFFSET 3.22368 0.508421 1.97842
                    CHANNELS 3 Zrotation Xrotation Yrotation
                    JOINT LeftHandIndex1
                    {
                      OFFSET 5.21684 -0.091368 0.999158
                      CHANNELS 3 Zrotation Xrotation Yrotation
                      JOINT LeftHandIndex2
                      {
                        OFFSET 3.61937 0 0
                        CHANNELS 3 Zrotation Xrotation Yrotation
                        JOINT LeftHandIndex3
                        {
                          OFFSET 2.0521 0 0
                          CHANNELS 3 Zrotation Xrotation Yrotation
                          End Site
                          {
                            OFFSET 1.805 0 0
                          }
                        }
                      }
                    }
                  }
                  JOINT LeftInHandMiddle
                  {
                    OFFSET 3.38211 0.517263 0.756737
                    CHANNELS 3 Zrotation Xrotation Yrotation
                    JOINT LeftHandMiddle1
                    {
                      OFFSET 5.17411 -0.084 0.313895
                      CHANNELS 3 Zrotation Xrotation Yrotation
                      JOINT LeftHandMiddle2
                      {
                        OFFSET 3.94947 0 0
                        CHANNELS 3 Zrotation Xrotation Yrotation
                        JOINT LeftHandMiddle3
                        {
                          OFFSET 2.47579 0 0
                          CHANNELS 3 Zrotation Xrotation Yrotation
                          End Site
                          {
                            OFFSET 1.975 0 0
                          }
                        }
                      }
                    }
                  }
                  JOINT LeftInHandRing
                  {
                    OFFSET 3.36516 0.537895 -0.128947
                    CHANNELS 3 Zrotation Xrotation Yrotation
                    JOINT LeftHandRing1
                    {
                      OFFSET 4.63474 -0.022105 -0.478947
                      CHANNELS 3 Zrotation Xrotation Yrotation
                      JOINT LeftHandRing2
                      {
                        OFFSET 3.44238 0 0
                        CHANNELS 3 Zrotation Xrotation Yrotation
                        JOINT LeftHandRing3
                        {
                          OFFSET 2.3881 0 0
                          CHANNELS 3 Zrotation Xrotation Yrotation
                          End Site
                          {
                            OFFSET 1.857 0 0
                          }
                        }
                      }
                    }
                  }
                  JOINT LeftInHandPinky
                  {
                    OFFSET 3.16105 0.469368 -1.20179
                    CHANNELS 3 Zrotation Xrotation Yrotation
                    JOINT LeftHandPinky1
                    {
                      OFFSET 4.14105 -0.022105 -1.09053
                      CHANNELS 3 Zrotation Xrotation Yrotation
                      JOINT LeftHandPinky2
                      {
                        OFFSET 2.75653 0 0
                        CHANNELS 3 Zrotation Xrotation Yrotation
                        JOINT LeftHandPinky3
                        {
                          OFFSET 1.74189 0 0
                          CHANNELS 3 Zrotation Xrotation Yrotation
                          End Site
                          {
                            OFFSET 1.645 0 0
                          }
                        }
                      }
                    }
                  }
                }
              }
            }
          }
        }
      }
    }
  }
}
MOTION
Frames: 2
Frame Time: 0.00833333
2.612989000000000033e+03 8.804030000000000200e+01 1.742139999999999986e+02 2.472129999999999939e+01 4.535729999999995599e-01 -1.405660000000000309e+02 3.543810000000000571e+01 -3.426330000000000098e+01 2.606960000000000122e+01 -6.341969999999999885e+00 1.191609999999999836e+01 4.969520000000001048e+00 5.604009999999999714e+00 1.192670000000000030e+01 5.791209999999999525e+01 3.499520000000000408e+01 -1.092670000000000208e+01 2.027670000000000172e+01 -2.874000000000000199e+01 4.089189999999999259e+01 2.935920000000000130e+01 6.103119999999999656e+00 -2.015289999999999537e+01 1.914509999999999934e+01 -2.966170000000000417e+00 -5.253580000000000361e+00 -1.210369999999999990e+01 -6.383910000000001528e-01 -1.401550000000000074e+00 -2.971530000000000005e+00 -1.089759999999999840e+00 -2.324619999999999465e+00 -4.860970000000000013e+00 -6.943230000000000235e-01 -4.782279999999999864e-01 2.800499999999999545e+00 5.253070000000000794e-01 -7.629420000000000535e+00 4.565459999999998786e+01 -1.129160000000000252e+01 1.001830000000000176e+01 2.741440000000000410e+01 -8.573450000000000237e-01 2.553479999999999528e+00 3.826000000000000068e+00 2.927809999999999491e+01 -6.450320000000000675e+01 -2.081369999999999720e+00 4.771990000000000265e+01 4.057439999999994384e-01 1.158170000000000073e+02 5.752160000000000828e+00 -2.404209999999999781e+01 3.845699999999999896e+00 2.818400000000000105e+01 1.072940000000000005e+01 1.915919999999999845e+01 3.552040000000000029e-15 3.975689999999992625e-16 -1.000000000000000000e+01 1.498669999999999560e-15 5.565969999999999999e-15 -1.000000000000000000e+01 -4.155840000000000887e-15 -1.590280000000000077e-15 -3.975690000000000513e-16 1.998179999999999978e+01 8.718970000000000331e-01 2.396399999999999864e+00 2.400000000000000000e+01 4.770830000000000256e-15 -1.431249999999999897e-14 2.000000000000000000e+01 3.975689999999999725e-15 7.951389999999999226e-15 -4.155840000000000887e-15 -1.590280000000000077e-15 -3.975690000000000513e-16 2.000000000000000000e+01 -3.180550000000000376e-15 -5.565969999999999999e-15 2.400000000000000000e+01 6.361109999999998952e-15 -1.272219999999999993e-14 2.000000000000000000e+01 -1.590280000000000668e-15 1.431249999999999897e-14 -4.155840000000000887e-15 -1.590280000000000077e-15 -3.975690000000000513e-16 1.997479999999999833e+01 -1.025649999999999951e+00 -2.819380000000000219e+00 2.400000000000000000e+01 4.770829999999999467e-15 1.590280000000000077e-15 2.000000000000000000e+01 1.113190000000000089e-14 1.431249999999999581e-14 -4.155840000000000887e-15 -1.590280000000000077e-15 -3.975690000000000513e-16 1.978150000000000119e+01 -3.009479999999999933e+00 -8.305149999999999366e+00 2.400000000000000000e+01 -3.180549999999999587e-15 -3.975689999999999725e-15 2.000000000000000000e+01 3.180549999999999982e-15 1.590280000000000274e-15 2.844279999999999475e+00 -2.446709999999999852e+01 -5.370270000000000010e+01 -2.238360000000000127e+01 2.597470000000000567e+01 -1.008520000000000039e+02 2.973329999999999629e+01 -1.069980000000000153e+01 -3.046880000000000521e+01 -3.583780000000000143e+01 -1.330550000000000033e+01 -1.660610000000000497e+01 -2.818400000000000105e+01 1.072940000000000005e+01 -1.915919999999999845e+01 -1.172430000000000160e-14 2.385419999999999622e-15 1.000000000000000000e+01 -2.048789999999999909e-14 0.000000000000000000e+00 1.000000000000000000e+01 -9.293179999999999283e-15 -4.770830000000000256e-15 -1.192710000000000403e-15 -1.998179999999999978e+01 8.718970000000000331e-01 -2.396399999999999864e+00 -2.400000000000000000e+01 -2.782989999999999888e-15 -6.361109999999998952e-15 -2.000000000000000000e+01 -2.782989999999999888e-15 6.361109999999999741e-15 -9.293179999999999283e-15 -4.770830000000000256e-15 -1.192710000000000403e-15 -2.000000000000000000e+01 -3.180550000000000376e-15 7.156249999999999484e-15 -2.400000000000000000e+01 1.590280000000000274e-15 1.590280000000001852e-15 -2.000000000000000000e+01 -1.192710000000000008e-15 3.180549999999999982e-15 -9.293179999999999283e-15 -4.770830000000000256e-15 -1.192710000000000403e-15 -1.997479999999999833e+01 -1.025649999999999951e+00 2.819380000000000219e+00 -2.400000000000000000e+01 7.951389999999999226e-16 5.565969999999999210e-15 -2.000000000000000000e+01 -3.975690000000000513e-15 7.951389999999999226e-15 -9.293179999999999283e-15 -4.770830000000000256e-15 -1.192710000000000403e-15 -1.978150000000000119e+01 -3.009479999999999933e+00 8.305149999999999366e+00 -2.400000000000000000e+01 0.000000000000000000e+00 3.578119999999999853e-15 -2.000000000000000000e+01 -6.361110000000000530e-15 9.541660000000000512e-15
2.612992000000000189e+03 8.803449999999999420e+01 1.742340000000000089e+02 2.474439999999999884e+01 5.036430000000002849e-01 -1.407270000000000323e+02 3.543809999999999860e+01 -3.437960000000000349e+01 2.560759999999999792e+01 -6.260959999999998971e+00 1.202639999999999887e+01 5.371480000000000921e+00 5.605999999999998984e+00 1.196560000000000024e+01 5.803470000000000084e+01 3.496970000000000312e+01 -1.106750000000000078e+01 1.993249999999999744e+01 -2.895890000000000342e+01 4.095850000000000080e+01 2.977230000000000132e+01 6.156269999999999243e+00 -2.007609999999999673e+01 1.928070000000000306e+01 -2.945520000000000138e+00 -5.283959999999999546e+00 -1.212979999999999947e+01 -6.324019999999999087e-01 -1.408160000000000078e+00 -2.978390000000000093e+00 -1.080060000000000020e+00 -2.334970000000000212e+00 -4.872260000000000701e+00 -6.920389999999999597e-01 -4.710470000000000490e-01 2.803819999999999979e+00 5.165430000000000854e-01 -7.537160000000000082e+00 4.567409999999999570e+01 -1.126559999999999917e+01 1.009340000000000259e+01 2.746709999999999496e+01 -8.466580000000001327e-01 2.601679999999999993e+00 3.920459999999999390e+00 2.918310000000000315e+01 -6.450020000000002085e+01 -2.312680000000000291e+00 4.754659999999999798e+01 3.591569999999997265e-01 1.159380000000000024e+02 5.365499999999999048e+00 -2.331869999999999976e+01 2.903769999999999740e+00 2.818400000000000105e+01 1.072940000000000005e+01 1.915919999999999845e+01 -7.548659999999999090e-16 8.597439999999999538e-15 -1.000000000000000000e+01 4.393070000000000996e-15 9.442270000000000291e-15 -1.000000000000000000e+01 -1.267249999999999835e-15 -1.590280000000000471e-15 -1.391490000000000055e-15 1.998179999999999978e+01 8.718970000000000331e-01 2.396399999999999864e+00 2.400000000000000000e+01 1.590280000000000274e-15 -9.541660000000002090e-15 2.000000000000000000e+01 1.987850000000000145e-15 1.590280000000000432e-14 -1.267249999999999835e-15 -1.590280000000000471e-15 -1.391490000000000055e-15 2.000000000000000000e+01 -3.180549999999999587e-15 -5.168400000000000127e-15 2.400000000000000000e+01 1.590280000000000274e-15 -1.113190000000000089e-14 2.000000000000000000e+01 -1.590280000000000274e-15 1.749310000000000336e-14 -1.267249999999999835e-15 -1.590280000000000471e-15 -1.391490000000000055e-15 1.997479999999999833e+01 -1.025649999999999951e+00 -2.819380000000000219e+00 2.400000000000000000e+01 3.180549999999999193e-15 0.000000000000000000e+00 2.000000000000000000e+01 1.272219999999999993e-14 1.749310000000000020e-14 -1.267249999999999835e-15 -1.590280000000000471e-15 -1.391490000000000055e-15 1.978150000000000119e+01 -3.009479999999999933e+00 -8.305149999999999366e+00 2.400000000000000000e+01 0.000000000000000000e+00 -3.776910000000000072e-15 2.000000000000000000e+01 4.770829999999999467e-15 3.975689999999998936e-15 2.842020000000000657e+00 -2.438700000000000401e+01 -5.367999999999999972e+01 -2.236990000000000123e+01 2.598229999999999862e+01 -1.008100000000000165e+02 2.962349999999999639e+01 -1.072770000000000046e+01 -3.059409999999999741e+01 -3.584949999999999193e+01 -1.326779999999999760e+01 -1.667470000000000141e+01 -2.818400000000000105e+01 1.072940000000000005e+01 -1.915919999999999845e+01 -1.099540000000000192e-14 3.975689999999998936e-15 1.000000000000000000e+01 -1.434260000000000078e-14 -7.951389999999999226e-16 1.000000000000000000e+01 -1.157919999999999851e-14 -3.180549999999999982e-15 -2.782989999999999888e-15 -1.998179999999999978e+01 8.718970000000000331e-01 -2.396399999999999864e+00 -2.400000000000000000e+01 -3.180549999999999982e-15 -6.361109999999999741e-15 -2.000000000000000000e+01 -2.683589999999999890e-15 7.951389999999999226e-15 -1.157919999999999851e-14 -3.180549999999999982e-15 -2.782989999999999888e-15 -2.000000000000000000e+01 -4.770830000000000256e-15 7.156249999999997906e-15 -2.400000000000000000e+01 1.590280000000000274e-15 0.000000000000000000e+00 -2.000000000000000000e+01 -5.963539999999995926e-16 6.361109999999998952e-15 -1.157919999999999851e-14 -3.180549999999999982e-15 -2.782989999999999888e-15 -1.997479999999999833e+01 -1.025649999999999951e+00 2.819380000000000219e+00 -2.400000000000000000e+01 3.975690000000000513e-15 7.156249999999999484e-15 -2.000000000000000000e+01 -5.565969999999999999e-15 4.770830000000001045e-15 -1.157919999999999851e-14 -3.180549999999999982e-15 -2.782989999999999888e-15 -1.978150000000000119e+01 -3.009479999999999933e+00 8.305149999999999366e+00 -2.400000000000000000e+01 0.000000000000000000e+00 3.578119999999999853e-15 -2.000000000000000000e+01 -3.180549999999999982e-15 1.192709999999999929e-14
